<mxfile host="app.diagrams.net" modified="2021-04-15T10:36:40.527Z" agent="5.0 (Windows NT 10.0; WOW64) AppleWebKit/537.36 (KHTML, like Gecko) Chrome/74.0.3713.0 Safari/537.36" etag="2-Ch4SvJ0ADEIA_rI_8M" version="14.6.0" type="github">
  <diagram id="zftOgERidzZRtkF6X8tJ" name="第 1 页">
    <mxGraphModel dx="1865" dy="499" grid="1" gridSize="10" guides="1" tooltips="1" connect="1" arrows="1" fold="1" page="1" pageScale="1" pageWidth="827" pageHeight="1169" math="0" shadow="0">
      <root>
        <mxCell id="0" />
        <mxCell id="1" parent="0" />
        <mxCell id="Dma4Zu4GrPWk_2FgmA7a-1" style="edgeStyle=orthogonalEdgeStyle;rounded=0;orthogonalLoop=1;jettySize=auto;html=1;exitX=0.5;exitY=1;exitDx=0;exitDy=0;fontSize=7;" edge="1" parent="1">
          <mxGeometry relative="1" as="geometry">
            <mxPoint x="-325" y="285" as="sourcePoint" />
            <mxPoint x="-325" y="285" as="targetPoint" />
          </mxGeometry>
        </mxCell>
        <mxCell id="Dma4Zu4GrPWk_2FgmA7a-2" value="" style="shape=curlyBracket;whiteSpace=wrap;html=1;rounded=1;fontSize=7;rotation=-90;strokeWidth=4;" vertex="1" parent="1">
          <mxGeometry x="164" y="360" width="35" height="470" as="geometry" />
        </mxCell>
        <mxCell id="Dma4Zu4GrPWk_2FgmA7a-3" value="&lt;font style=&quot;font-size: 18px&quot;&gt;高位填充4个0&lt;/font&gt;" style="text;html=1;strokeColor=none;fillColor=none;align=center;verticalAlign=middle;whiteSpace=wrap;rounded=0;fontSize=7;" vertex="1" parent="1">
          <mxGeometry x="-470" y="700" width="220" height="50" as="geometry" />
        </mxCell>
        <mxCell id="Dma4Zu4GrPWk_2FgmA7a-4" value="" style="shape=curlyBracket;whiteSpace=wrap;html=1;rounded=1;strokeColor=#000000;strokeWidth=4;fillColor=#F8CECC;fontSize=7;align=left;rotation=90;" vertex="1" parent="1">
          <mxGeometry x="460" y="470" width="40" height="120" as="geometry" />
        </mxCell>
        <mxCell id="Dma4Zu4GrPWk_2FgmA7a-5" value="&lt;font style=&quot;font-size: 18px&quot;&gt;低位移除4位&lt;/font&gt;" style="text;html=1;strokeColor=none;fillColor=none;align=center;verticalAlign=middle;whiteSpace=wrap;rounded=0;fontSize=7;" vertex="1" parent="1">
          <mxGeometry x="420" y="491.75" width="120" height="20" as="geometry" />
        </mxCell>
        <mxCell id="Dma4Zu4GrPWk_2FgmA7a-6" value="" style="shape=curlyBracket;whiteSpace=wrap;html=1;rounded=1;fontSize=7;rotation=-90;strokeWidth=4;" vertex="1" parent="1">
          <mxGeometry x="282.5" y="460" width="35" height="470" as="geometry" />
        </mxCell>
        <mxCell id="Dma4Zu4GrPWk_2FgmA7a-7" value="&lt;font style=&quot;font-size: 18px&quot;&gt;向左移4位得到下面的结果&lt;/font&gt;" style="text;html=1;strokeColor=none;fillColor=none;align=center;verticalAlign=middle;whiteSpace=wrap;rounded=0;fontSize=7;" vertex="1" parent="1">
          <mxGeometry x="69.75" y="611.38" width="223.5" height="28.62" as="geometry" />
        </mxCell>
        <mxCell id="Dma4Zu4GrPWk_2FgmA7a-8" value="" style="endArrow=none;dashed=1;html=1;strokeWidth=3;fontSize=7;" edge="1" parent="1">
          <mxGeometry width="50" height="50" relative="1" as="geometry">
            <mxPoint x="60" y="782.5" as="sourcePoint" />
            <mxPoint x="60" y="420" as="targetPoint" />
          </mxGeometry>
        </mxCell>
        <mxCell id="Dma4Zu4GrPWk_2FgmA7a-9" value="" style="shape=curlyBracket;whiteSpace=wrap;html=1;rounded=1;strokeColor=#000000;strokeWidth=4;fillColor=#FFFFFF;fontSize=7;align=left;rotation=-90;" vertex="1" parent="1">
          <mxGeometry x="-370" y="630" width="20" height="120" as="geometry" />
        </mxCell>
        <mxCell id="Dma4Zu4GrPWk_2FgmA7a-10" value="" style="shape=table;html=1;whiteSpace=wrap;startSize=0;container=1;collapsible=0;childLayout=tableLayout;aspect=fixed;strokeColor=#b85450;fillColor=#F8CECC;" vertex="1" parent="1">
          <mxGeometry x="-420" y="550" width="480" height="20" as="geometry" />
        </mxCell>
        <mxCell id="Dma4Zu4GrPWk_2FgmA7a-11" value="" style="shape=partialRectangle;html=1;whiteSpace=wrap;collapsible=0;dropTarget=0;pointerEvents=0;fillColor=none;top=0;left=0;bottom=0;right=0;points=[[0,0.5],[1,0.5]];portConstraint=eastwest;" vertex="1" parent="Dma4Zu4GrPWk_2FgmA7a-10">
          <mxGeometry width="480" height="20" as="geometry" />
        </mxCell>
        <mxCell id="Dma4Zu4GrPWk_2FgmA7a-12" value="0" style="shape=partialRectangle;html=1;whiteSpace=wrap;connectable=0;overflow=hidden;fillColor=none;top=0;left=0;bottom=0;right=0;" vertex="1" parent="Dma4Zu4GrPWk_2FgmA7a-11">
          <mxGeometry width="30" height="20" as="geometry" />
        </mxCell>
        <mxCell id="Dma4Zu4GrPWk_2FgmA7a-13" value="0" style="shape=partialRectangle;html=1;whiteSpace=wrap;connectable=0;overflow=hidden;fillColor=none;top=0;left=0;bottom=0;right=0;" vertex="1" parent="Dma4Zu4GrPWk_2FgmA7a-11">
          <mxGeometry x="30" width="30" height="20" as="geometry" />
        </mxCell>
        <mxCell id="Dma4Zu4GrPWk_2FgmA7a-14" value="0" style="shape=partialRectangle;html=1;whiteSpace=wrap;connectable=0;overflow=hidden;fillColor=none;top=0;left=0;bottom=0;right=0;" vertex="1" parent="Dma4Zu4GrPWk_2FgmA7a-11">
          <mxGeometry x="60" width="30" height="20" as="geometry" />
        </mxCell>
        <mxCell id="Dma4Zu4GrPWk_2FgmA7a-15" value="0" style="shape=partialRectangle;html=1;whiteSpace=wrap;connectable=0;overflow=hidden;fillColor=none;top=0;left=0;bottom=0;right=0;" vertex="1" parent="Dma4Zu4GrPWk_2FgmA7a-11">
          <mxGeometry x="90" width="30" height="20" as="geometry" />
        </mxCell>
        <mxCell id="Dma4Zu4GrPWk_2FgmA7a-16" value="0" style="shape=partialRectangle;html=1;whiteSpace=wrap;connectable=0;overflow=hidden;fillColor=none;top=0;left=0;bottom=0;right=0;" vertex="1" parent="Dma4Zu4GrPWk_2FgmA7a-11">
          <mxGeometry x="120" width="30" height="20" as="geometry" />
        </mxCell>
        <mxCell id="Dma4Zu4GrPWk_2FgmA7a-17" value="0" style="shape=partialRectangle;html=1;whiteSpace=wrap;connectable=0;overflow=hidden;fillColor=none;top=0;left=0;bottom=0;right=0;" vertex="1" parent="Dma4Zu4GrPWk_2FgmA7a-11">
          <mxGeometry x="150" width="30" height="20" as="geometry" />
        </mxCell>
        <mxCell id="Dma4Zu4GrPWk_2FgmA7a-18" value="0" style="shape=partialRectangle;html=1;whiteSpace=wrap;connectable=0;overflow=hidden;fillColor=none;top=0;left=0;bottom=0;right=0;" vertex="1" parent="Dma4Zu4GrPWk_2FgmA7a-11">
          <mxGeometry x="180" width="30" height="20" as="geometry" />
        </mxCell>
        <mxCell id="Dma4Zu4GrPWk_2FgmA7a-19" value="0" style="shape=partialRectangle;html=1;whiteSpace=wrap;connectable=0;overflow=hidden;fillColor=none;top=0;left=0;bottom=0;right=0;" vertex="1" parent="Dma4Zu4GrPWk_2FgmA7a-11">
          <mxGeometry x="210" width="30" height="20" as="geometry" />
        </mxCell>
        <mxCell id="Dma4Zu4GrPWk_2FgmA7a-20" value="0" style="shape=partialRectangle;html=1;whiteSpace=wrap;connectable=0;overflow=hidden;fillColor=none;top=0;left=0;bottom=0;right=0;" vertex="1" parent="Dma4Zu4GrPWk_2FgmA7a-11">
          <mxGeometry x="240" width="30" height="20" as="geometry" />
        </mxCell>
        <mxCell id="Dma4Zu4GrPWk_2FgmA7a-21" value="0" style="shape=partialRectangle;html=1;whiteSpace=wrap;connectable=0;overflow=hidden;fillColor=none;top=0;left=0;bottom=0;right=0;" vertex="1" parent="Dma4Zu4GrPWk_2FgmA7a-11">
          <mxGeometry x="270" width="30" height="20" as="geometry" />
        </mxCell>
        <mxCell id="Dma4Zu4GrPWk_2FgmA7a-22" value="0" style="shape=partialRectangle;html=1;whiteSpace=wrap;connectable=0;overflow=hidden;fillColor=none;top=0;left=0;bottom=0;right=0;" vertex="1" parent="Dma4Zu4GrPWk_2FgmA7a-11">
          <mxGeometry x="300" width="30" height="20" as="geometry" />
        </mxCell>
        <mxCell id="Dma4Zu4GrPWk_2FgmA7a-23" value="0" style="shape=partialRectangle;html=1;whiteSpace=wrap;connectable=0;overflow=hidden;fillColor=none;top=0;left=0;bottom=0;right=0;" vertex="1" parent="Dma4Zu4GrPWk_2FgmA7a-11">
          <mxGeometry x="330" width="30" height="20" as="geometry" />
        </mxCell>
        <mxCell id="Dma4Zu4GrPWk_2FgmA7a-24" value="1" style="shape=partialRectangle;html=1;whiteSpace=wrap;connectable=0;overflow=hidden;top=0;left=0;bottom=0;right=0;fillColor=#f8cecc;strokeColor=#b85450;" vertex="1" parent="Dma4Zu4GrPWk_2FgmA7a-11">
          <mxGeometry x="360" width="30" height="20" as="geometry" />
        </mxCell>
        <mxCell id="Dma4Zu4GrPWk_2FgmA7a-25" value="1" style="shape=partialRectangle;html=1;whiteSpace=wrap;connectable=0;overflow=hidden;top=0;left=0;bottom=0;right=0;fillColor=#f8cecc;strokeColor=#b85450;" vertex="1" parent="Dma4Zu4GrPWk_2FgmA7a-11">
          <mxGeometry x="390" width="30" height="20" as="geometry" />
        </mxCell>
        <mxCell id="Dma4Zu4GrPWk_2FgmA7a-26" value="1" style="shape=partialRectangle;html=1;whiteSpace=wrap;connectable=0;overflow=hidden;top=0;left=0;bottom=0;right=0;fillColor=#f8cecc;strokeColor=#b85450;" vertex="1" parent="Dma4Zu4GrPWk_2FgmA7a-11">
          <mxGeometry x="420" width="30" height="20" as="geometry" />
        </mxCell>
        <mxCell id="Dma4Zu4GrPWk_2FgmA7a-27" value="1" style="shape=partialRectangle;html=1;whiteSpace=wrap;connectable=0;overflow=hidden;top=0;left=0;bottom=0;right=0;fillColor=#f8cecc;strokeColor=#b85450;" vertex="1" parent="Dma4Zu4GrPWk_2FgmA7a-11">
          <mxGeometry x="450" width="30" height="20" as="geometry" />
        </mxCell>
        <mxCell id="Dma4Zu4GrPWk_2FgmA7a-28" value="" style="shape=table;html=1;whiteSpace=wrap;startSize=0;container=1;collapsible=0;childLayout=tableLayout;aspect=fixed;fillColor=#60a917;strokeColor=#2D7600;fontColor=#ffffff;" vertex="1" parent="1">
          <mxGeometry x="60" y="550" width="480" height="20" as="geometry" />
        </mxCell>
        <mxCell id="Dma4Zu4GrPWk_2FgmA7a-29" value="" style="shape=partialRectangle;html=1;whiteSpace=wrap;collapsible=0;dropTarget=0;pointerEvents=0;fillColor=none;top=0;left=0;bottom=0;right=0;points=[[0,0.5],[1,0.5]];portConstraint=eastwest;" vertex="1" parent="Dma4Zu4GrPWk_2FgmA7a-28">
          <mxGeometry width="480" height="20" as="geometry" />
        </mxCell>
        <mxCell id="Dma4Zu4GrPWk_2FgmA7a-30" value="0" style="shape=partialRectangle;html=1;whiteSpace=wrap;connectable=0;overflow=hidden;fillColor=none;top=0;left=0;bottom=0;right=0;" vertex="1" parent="Dma4Zu4GrPWk_2FgmA7a-29">
          <mxGeometry width="30" height="20" as="geometry" />
        </mxCell>
        <mxCell id="Dma4Zu4GrPWk_2FgmA7a-31" value="1" style="shape=partialRectangle;html=1;whiteSpace=wrap;connectable=0;overflow=hidden;fillColor=none;top=0;left=0;bottom=0;right=0;" vertex="1" parent="Dma4Zu4GrPWk_2FgmA7a-29">
          <mxGeometry x="30" width="30" height="20" as="geometry" />
        </mxCell>
        <mxCell id="Dma4Zu4GrPWk_2FgmA7a-32" value="1" style="shape=partialRectangle;html=1;whiteSpace=wrap;connectable=0;overflow=hidden;fillColor=none;top=0;left=0;bottom=0;right=0;" vertex="1" parent="Dma4Zu4GrPWk_2FgmA7a-29">
          <mxGeometry x="60" width="30" height="20" as="geometry" />
        </mxCell>
        <mxCell id="Dma4Zu4GrPWk_2FgmA7a-33" value="0" style="shape=partialRectangle;html=1;whiteSpace=wrap;connectable=0;overflow=hidden;fillColor=none;top=0;left=0;bottom=0;right=0;" vertex="1" parent="Dma4Zu4GrPWk_2FgmA7a-29">
          <mxGeometry x="90" width="30" height="20" as="geometry" />
        </mxCell>
        <mxCell id="Dma4Zu4GrPWk_2FgmA7a-34" value="0" style="shape=partialRectangle;html=1;whiteSpace=wrap;connectable=0;overflow=hidden;fillColor=none;top=0;left=0;bottom=0;right=0;" vertex="1" parent="Dma4Zu4GrPWk_2FgmA7a-29">
          <mxGeometry x="120" width="30" height="20" as="geometry" />
        </mxCell>
        <mxCell id="Dma4Zu4GrPWk_2FgmA7a-35" value="0" style="shape=partialRectangle;html=1;whiteSpace=wrap;connectable=0;overflow=hidden;fillColor=none;top=0;left=0;bottom=0;right=0;" vertex="1" parent="Dma4Zu4GrPWk_2FgmA7a-29">
          <mxGeometry x="150" width="30" height="20" as="geometry" />
        </mxCell>
        <mxCell id="Dma4Zu4GrPWk_2FgmA7a-36" value="1" style="shape=partialRectangle;html=1;whiteSpace=wrap;connectable=0;overflow=hidden;fillColor=none;top=0;left=0;bottom=0;right=0;" vertex="1" parent="Dma4Zu4GrPWk_2FgmA7a-29">
          <mxGeometry x="180" width="30" height="20" as="geometry" />
        </mxCell>
        <mxCell id="Dma4Zu4GrPWk_2FgmA7a-37" value="1" style="shape=partialRectangle;html=1;whiteSpace=wrap;connectable=0;overflow=hidden;fillColor=none;top=0;left=0;bottom=0;right=0;" vertex="1" parent="Dma4Zu4GrPWk_2FgmA7a-29">
          <mxGeometry x="210" width="30" height="20" as="geometry" />
        </mxCell>
        <mxCell id="Dma4Zu4GrPWk_2FgmA7a-38" value="1" style="shape=partialRectangle;html=1;whiteSpace=wrap;connectable=0;overflow=hidden;fillColor=none;top=0;left=0;bottom=0;right=0;" vertex="1" parent="Dma4Zu4GrPWk_2FgmA7a-29">
          <mxGeometry x="240" width="30" height="20" as="geometry" />
        </mxCell>
        <mxCell id="Dma4Zu4GrPWk_2FgmA7a-39" value="1" style="shape=partialRectangle;html=1;whiteSpace=wrap;connectable=0;overflow=hidden;fillColor=none;top=0;left=0;bottom=0;right=0;" vertex="1" parent="Dma4Zu4GrPWk_2FgmA7a-29">
          <mxGeometry x="270" width="30" height="20" as="geometry" />
        </mxCell>
        <mxCell id="Dma4Zu4GrPWk_2FgmA7a-40" value="1" style="shape=partialRectangle;html=1;whiteSpace=wrap;connectable=0;overflow=hidden;fillColor=none;top=0;left=0;bottom=0;right=0;" vertex="1" parent="Dma4Zu4GrPWk_2FgmA7a-29">
          <mxGeometry x="300" width="30" height="20" as="geometry" />
        </mxCell>
        <mxCell id="Dma4Zu4GrPWk_2FgmA7a-41" value="0" style="shape=partialRectangle;html=1;whiteSpace=wrap;connectable=0;overflow=hidden;fillColor=none;top=0;left=0;bottom=0;right=0;" vertex="1" parent="Dma4Zu4GrPWk_2FgmA7a-29">
          <mxGeometry x="330" width="30" height="20" as="geometry" />
        </mxCell>
        <mxCell id="Dma4Zu4GrPWk_2FgmA7a-42" value="0" style="shape=partialRectangle;html=1;whiteSpace=wrap;connectable=0;overflow=hidden;fillColor=#d5e8d4;top=0;left=0;bottom=0;right=0;strokeColor=#82b366;" vertex="1" parent="Dma4Zu4GrPWk_2FgmA7a-29">
          <mxGeometry x="360" width="30" height="20" as="geometry" />
        </mxCell>
        <mxCell id="Dma4Zu4GrPWk_2FgmA7a-43" value="0" style="shape=partialRectangle;html=1;whiteSpace=wrap;connectable=0;overflow=hidden;fillColor=#d5e8d4;top=0;left=0;bottom=0;right=0;strokeColor=#82b366;" vertex="1" parent="Dma4Zu4GrPWk_2FgmA7a-29">
          <mxGeometry x="390" width="30" height="20" as="geometry" />
        </mxCell>
        <mxCell id="Dma4Zu4GrPWk_2FgmA7a-44" value="1" style="shape=partialRectangle;html=1;whiteSpace=wrap;connectable=0;overflow=hidden;fillColor=#d5e8d4;top=0;left=0;bottom=0;right=0;strokeColor=#82b366;" vertex="1" parent="Dma4Zu4GrPWk_2FgmA7a-29">
          <mxGeometry x="420" width="30" height="20" as="geometry" />
        </mxCell>
        <mxCell id="Dma4Zu4GrPWk_2FgmA7a-45" value="1" style="shape=partialRectangle;html=1;whiteSpace=wrap;connectable=0;overflow=hidden;fillColor=#d5e8d4;top=0;left=0;bottom=0;right=0;strokeColor=#82b366;" vertex="1" parent="Dma4Zu4GrPWk_2FgmA7a-29">
          <mxGeometry x="450" width="30" height="20" as="geometry" />
        </mxCell>
        <mxCell id="Dma4Zu4GrPWk_2FgmA7a-46" value="" style="shape=table;html=1;whiteSpace=wrap;startSize=0;container=1;collapsible=0;childLayout=tableLayout;aspect=fixed;fillColor=#60a917;strokeColor=#2D7600;fontColor=#ffffff;" vertex="1" parent="1">
          <mxGeometry x="60" y="650" width="480" height="20" as="geometry" />
        </mxCell>
        <mxCell id="Dma4Zu4GrPWk_2FgmA7a-47" value="" style="shape=partialRectangle;html=1;whiteSpace=wrap;collapsible=0;dropTarget=0;pointerEvents=0;fillColor=none;top=0;left=0;bottom=0;right=0;points=[[0,0.5],[1,0.5]];portConstraint=eastwest;" vertex="1" parent="Dma4Zu4GrPWk_2FgmA7a-46">
          <mxGeometry width="480" height="20" as="geometry" />
        </mxCell>
        <mxCell id="Dma4Zu4GrPWk_2FgmA7a-48" value="1" style="shape=partialRectangle;html=1;whiteSpace=wrap;connectable=0;overflow=hidden;fillColor=none;top=0;left=0;bottom=0;right=0;" vertex="1" parent="Dma4Zu4GrPWk_2FgmA7a-47">
          <mxGeometry width="30" height="20" as="geometry" />
        </mxCell>
        <mxCell id="Dma4Zu4GrPWk_2FgmA7a-49" value="1" style="shape=partialRectangle;html=1;whiteSpace=wrap;connectable=0;overflow=hidden;fillColor=none;top=0;left=0;bottom=0;right=0;" vertex="1" parent="Dma4Zu4GrPWk_2FgmA7a-47">
          <mxGeometry x="30" width="30" height="20" as="geometry" />
        </mxCell>
        <mxCell id="Dma4Zu4GrPWk_2FgmA7a-50" value="1" style="shape=partialRectangle;html=1;whiteSpace=wrap;connectable=0;overflow=hidden;fillColor=none;top=0;left=0;bottom=0;right=0;" vertex="1" parent="Dma4Zu4GrPWk_2FgmA7a-47">
          <mxGeometry x="60" width="30" height="20" as="geometry" />
        </mxCell>
        <mxCell id="Dma4Zu4GrPWk_2FgmA7a-51" value="1" style="shape=partialRectangle;html=1;whiteSpace=wrap;connectable=0;overflow=hidden;fillColor=none;top=0;left=0;bottom=0;right=0;" vertex="1" parent="Dma4Zu4GrPWk_2FgmA7a-47">
          <mxGeometry x="90" width="30" height="20" as="geometry" />
        </mxCell>
        <mxCell id="Dma4Zu4GrPWk_2FgmA7a-52" value="0" style="shape=partialRectangle;html=1;whiteSpace=wrap;connectable=0;overflow=hidden;fillColor=none;top=0;left=0;bottom=0;right=0;" vertex="1" parent="Dma4Zu4GrPWk_2FgmA7a-47">
          <mxGeometry x="120" width="30" height="20" as="geometry" />
        </mxCell>
        <mxCell id="Dma4Zu4GrPWk_2FgmA7a-53" value="1" style="shape=partialRectangle;html=1;whiteSpace=wrap;connectable=0;overflow=hidden;fillColor=none;top=0;left=0;bottom=0;right=0;" vertex="1" parent="Dma4Zu4GrPWk_2FgmA7a-47">
          <mxGeometry x="150" width="30" height="20" as="geometry" />
        </mxCell>
        <mxCell id="Dma4Zu4GrPWk_2FgmA7a-54" value="1" style="shape=partialRectangle;html=1;whiteSpace=wrap;connectable=0;overflow=hidden;fillColor=none;top=0;left=0;bottom=0;right=0;" vertex="1" parent="Dma4Zu4GrPWk_2FgmA7a-47">
          <mxGeometry x="180" width="30" height="20" as="geometry" />
        </mxCell>
        <mxCell id="Dma4Zu4GrPWk_2FgmA7a-55" value="0" style="shape=partialRectangle;html=1;whiteSpace=wrap;connectable=0;overflow=hidden;fillColor=none;top=0;left=0;bottom=0;right=0;" vertex="1" parent="Dma4Zu4GrPWk_2FgmA7a-47">
          <mxGeometry x="210" width="30" height="20" as="geometry" />
        </mxCell>
        <mxCell id="Dma4Zu4GrPWk_2FgmA7a-56" value="0" style="shape=partialRectangle;html=1;whiteSpace=wrap;connectable=0;overflow=hidden;fillColor=none;top=0;left=0;bottom=0;right=0;" vertex="1" parent="Dma4Zu4GrPWk_2FgmA7a-47">
          <mxGeometry x="240" width="30" height="20" as="geometry" />
        </mxCell>
        <mxCell id="Dma4Zu4GrPWk_2FgmA7a-57" value="0" style="shape=partialRectangle;html=1;whiteSpace=wrap;connectable=0;overflow=hidden;fillColor=none;top=0;left=0;bottom=0;right=0;" vertex="1" parent="Dma4Zu4GrPWk_2FgmA7a-47">
          <mxGeometry x="270" width="30" height="20" as="geometry" />
        </mxCell>
        <mxCell id="Dma4Zu4GrPWk_2FgmA7a-58" value="1" style="shape=partialRectangle;html=1;whiteSpace=wrap;connectable=0;overflow=hidden;fillColor=none;top=0;left=0;bottom=0;right=0;" vertex="1" parent="Dma4Zu4GrPWk_2FgmA7a-47">
          <mxGeometry x="300" width="30" height="20" as="geometry" />
        </mxCell>
        <mxCell id="Dma4Zu4GrPWk_2FgmA7a-59" value="1" style="shape=partialRectangle;html=1;whiteSpace=wrap;connectable=0;overflow=hidden;fillColor=none;top=0;left=0;bottom=0;right=0;" vertex="1" parent="Dma4Zu4GrPWk_2FgmA7a-47">
          <mxGeometry x="330" width="30" height="20" as="geometry" />
        </mxCell>
        <mxCell id="Dma4Zu4GrPWk_2FgmA7a-60" value="1" style="shape=partialRectangle;html=1;whiteSpace=wrap;connectable=0;overflow=hidden;fillColor=none;top=0;left=0;bottom=0;right=0;" vertex="1" parent="Dma4Zu4GrPWk_2FgmA7a-47">
          <mxGeometry x="360" width="30" height="20" as="geometry" />
        </mxCell>
        <mxCell id="Dma4Zu4GrPWk_2FgmA7a-61" value="1" style="shape=partialRectangle;html=1;whiteSpace=wrap;connectable=0;overflow=hidden;fillColor=none;top=0;left=0;bottom=0;right=0;" vertex="1" parent="Dma4Zu4GrPWk_2FgmA7a-47">
          <mxGeometry x="390" width="30" height="20" as="geometry" />
        </mxCell>
        <mxCell id="Dma4Zu4GrPWk_2FgmA7a-62" value="1" style="shape=partialRectangle;html=1;whiteSpace=wrap;connectable=0;overflow=hidden;fillColor=none;top=0;left=0;bottom=0;right=0;" vertex="1" parent="Dma4Zu4GrPWk_2FgmA7a-47">
          <mxGeometry x="420" width="30" height="20" as="geometry" />
        </mxCell>
        <mxCell id="Dma4Zu4GrPWk_2FgmA7a-63" value="0" style="shape=partialRectangle;html=1;whiteSpace=wrap;connectable=0;overflow=hidden;fillColor=none;top=0;left=0;bottom=0;right=0;" vertex="1" parent="Dma4Zu4GrPWk_2FgmA7a-47">
          <mxGeometry x="450" width="30" height="20" as="geometry" />
        </mxCell>
        <mxCell id="Dma4Zu4GrPWk_2FgmA7a-64" value="" style="shape=table;html=1;whiteSpace=wrap;startSize=0;container=1;collapsible=0;childLayout=tableLayout;aspect=fixed;fillColor=#f8cecc;strokeColor=#b85450;" vertex="1" parent="1">
          <mxGeometry x="-420" y="650" width="480" height="20" as="geometry" />
        </mxCell>
        <mxCell id="Dma4Zu4GrPWk_2FgmA7a-65" value="" style="shape=partialRectangle;html=1;whiteSpace=wrap;collapsible=0;dropTarget=0;pointerEvents=0;fillColor=none;top=0;left=0;bottom=0;right=0;points=[[0,0.5],[1,0.5]];portConstraint=eastwest;" vertex="1" parent="Dma4Zu4GrPWk_2FgmA7a-64">
          <mxGeometry width="480" height="20" as="geometry" />
        </mxCell>
        <mxCell id="Dma4Zu4GrPWk_2FgmA7a-66" value="0" style="shape=partialRectangle;html=1;whiteSpace=wrap;connectable=0;overflow=hidden;fillColor=#e1d5e7;top=0;left=0;bottom=0;right=0;strokeColor=#9673a6;" vertex="1" parent="Dma4Zu4GrPWk_2FgmA7a-65">
          <mxGeometry width="30" height="20" as="geometry" />
        </mxCell>
        <mxCell id="Dma4Zu4GrPWk_2FgmA7a-67" value="0" style="shape=partialRectangle;html=1;whiteSpace=wrap;connectable=0;overflow=hidden;fillColor=#e1d5e7;top=0;left=0;bottom=0;right=0;strokeColor=#9673a6;" vertex="1" parent="Dma4Zu4GrPWk_2FgmA7a-65">
          <mxGeometry x="30" width="30" height="20" as="geometry" />
        </mxCell>
        <mxCell id="Dma4Zu4GrPWk_2FgmA7a-68" value="0" style="shape=partialRectangle;html=1;whiteSpace=wrap;connectable=0;overflow=hidden;fillColor=#e1d5e7;top=0;left=0;bottom=0;right=0;strokeColor=#9673a6;" vertex="1" parent="Dma4Zu4GrPWk_2FgmA7a-65">
          <mxGeometry x="60" width="30" height="20" as="geometry" />
        </mxCell>
        <mxCell id="Dma4Zu4GrPWk_2FgmA7a-69" value="0" style="shape=partialRectangle;html=1;whiteSpace=wrap;connectable=0;overflow=hidden;fillColor=#e1d5e7;top=0;left=0;bottom=0;right=0;strokeColor=#9673a6;" vertex="1" parent="Dma4Zu4GrPWk_2FgmA7a-65">
          <mxGeometry x="90" width="30" height="20" as="geometry" />
        </mxCell>
        <mxCell id="Dma4Zu4GrPWk_2FgmA7a-70" value="0" style="shape=partialRectangle;html=1;whiteSpace=wrap;connectable=0;overflow=hidden;fillColor=none;top=0;left=0;bottom=0;right=0;" vertex="1" parent="Dma4Zu4GrPWk_2FgmA7a-65">
          <mxGeometry x="120" width="30" height="20" as="geometry" />
        </mxCell>
        <mxCell id="Dma4Zu4GrPWk_2FgmA7a-71" value="0" style="shape=partialRectangle;html=1;whiteSpace=wrap;connectable=0;overflow=hidden;fillColor=none;top=0;left=0;bottom=0;right=0;" vertex="1" parent="Dma4Zu4GrPWk_2FgmA7a-65">
          <mxGeometry x="150" width="30" height="20" as="geometry" />
        </mxCell>
        <mxCell id="Dma4Zu4GrPWk_2FgmA7a-72" value="0" style="shape=partialRectangle;html=1;whiteSpace=wrap;connectable=0;overflow=hidden;fillColor=none;top=0;left=0;bottom=0;right=0;" vertex="1" parent="Dma4Zu4GrPWk_2FgmA7a-65">
          <mxGeometry x="180" width="30" height="20" as="geometry" />
        </mxCell>
        <mxCell id="Dma4Zu4GrPWk_2FgmA7a-73" value="0" style="shape=partialRectangle;html=1;whiteSpace=wrap;connectable=0;overflow=hidden;fillColor=none;top=0;left=0;bottom=0;right=0;" vertex="1" parent="Dma4Zu4GrPWk_2FgmA7a-65">
          <mxGeometry x="210" width="30" height="20" as="geometry" />
        </mxCell>
        <mxCell id="Dma4Zu4GrPWk_2FgmA7a-74" value="0" style="shape=partialRectangle;html=1;whiteSpace=wrap;connectable=0;overflow=hidden;fillColor=none;top=0;left=0;bottom=0;right=0;" vertex="1" parent="Dma4Zu4GrPWk_2FgmA7a-65">
          <mxGeometry x="240" width="30" height="20" as="geometry" />
        </mxCell>
        <mxCell id="Dma4Zu4GrPWk_2FgmA7a-75" value="0" style="shape=partialRectangle;html=1;whiteSpace=wrap;connectable=0;overflow=hidden;fillColor=none;top=0;left=0;bottom=0;right=0;" vertex="1" parent="Dma4Zu4GrPWk_2FgmA7a-65">
          <mxGeometry x="270" width="30" height="20" as="geometry" />
        </mxCell>
        <mxCell id="Dma4Zu4GrPWk_2FgmA7a-76" value="0" style="shape=partialRectangle;html=1;whiteSpace=wrap;connectable=0;overflow=hidden;fillColor=none;top=0;left=0;bottom=0;right=0;" vertex="1" parent="Dma4Zu4GrPWk_2FgmA7a-65">
          <mxGeometry x="300" width="30" height="20" as="geometry" />
        </mxCell>
        <mxCell id="Dma4Zu4GrPWk_2FgmA7a-77" value="0" style="shape=partialRectangle;html=1;whiteSpace=wrap;connectable=0;overflow=hidden;fillColor=none;top=0;left=0;bottom=0;right=0;" vertex="1" parent="Dma4Zu4GrPWk_2FgmA7a-65">
          <mxGeometry x="330" width="30" height="20" as="geometry" />
        </mxCell>
        <mxCell id="Dma4Zu4GrPWk_2FgmA7a-78" value="0" style="shape=partialRectangle;html=1;whiteSpace=wrap;connectable=0;overflow=hidden;fillColor=none;top=0;left=0;bottom=0;right=0;" vertex="1" parent="Dma4Zu4GrPWk_2FgmA7a-65">
          <mxGeometry x="360" width="30" height="20" as="geometry" />
        </mxCell>
        <mxCell id="Dma4Zu4GrPWk_2FgmA7a-79" value="0" style="shape=partialRectangle;html=1;whiteSpace=wrap;connectable=0;overflow=hidden;fillColor=none;top=0;left=0;bottom=0;right=0;" vertex="1" parent="Dma4Zu4GrPWk_2FgmA7a-65">
          <mxGeometry x="390" width="30" height="20" as="geometry" />
        </mxCell>
        <mxCell id="Dma4Zu4GrPWk_2FgmA7a-80" value="0" style="shape=partialRectangle;html=1;whiteSpace=wrap;connectable=0;overflow=hidden;fillColor=none;top=0;left=0;bottom=0;right=0;" vertex="1" parent="Dma4Zu4GrPWk_2FgmA7a-65">
          <mxGeometry x="420" width="30" height="20" as="geometry" />
        </mxCell>
        <mxCell id="Dma4Zu4GrPWk_2FgmA7a-81" value="0" style="shape=partialRectangle;html=1;whiteSpace=wrap;connectable=0;overflow=hidden;fillColor=none;top=0;left=0;bottom=0;right=0;" vertex="1" parent="Dma4Zu4GrPWk_2FgmA7a-65">
          <mxGeometry x="450" width="30" height="20" as="geometry" />
        </mxCell>
        <mxCell id="Dma4Zu4GrPWk_2FgmA7a-82" value="" style="endArrow=classic;html=1;strokeWidth=3;fontSize=7;" edge="1" parent="1">
          <mxGeometry width="50" height="50" relative="1" as="geometry">
            <mxPoint x="-580" y="567" as="sourcePoint" />
            <mxPoint x="-430" y="567" as="targetPoint" />
          </mxGeometry>
        </mxCell>
        <mxCell id="Dma4Zu4GrPWk_2FgmA7a-83" value="" style="endArrow=classic;html=1;strokeWidth=3;fontSize=7;" edge="1" parent="1">
          <mxGeometry width="50" height="50" relative="1" as="geometry">
            <mxPoint x="-590" y="670" as="sourcePoint" />
            <mxPoint x="-430" y="660" as="targetPoint" />
          </mxGeometry>
        </mxCell>
        <mxCell id="Dma4Zu4GrPWk_2FgmA7a-84" value="&lt;font style=&quot;font-size: 18px&quot;&gt;63038&lt;/font&gt;" style="text;html=1;strokeColor=none;fillColor=none;align=center;verticalAlign=middle;whiteSpace=wrap;rounded=0;fontSize=7;" vertex="1" parent="1">
          <mxGeometry x="-650" y="660" width="60" height="20" as="geometry" />
        </mxCell>
        <mxCell id="Dma4Zu4GrPWk_2FgmA7a-85" value="&lt;font style=&quot;font-size: 18px&quot;&gt;1008611&lt;/font&gt;" style="text;html=1;align=center;verticalAlign=middle;whiteSpace=wrap;rounded=0;fontSize=7;" vertex="1" parent="1">
          <mxGeometry x="-640" y="560" width="40" height="20" as="geometry" />
        </mxCell>
        <mxCell id="Dma4Zu4GrPWk_2FgmA7a-86" value="" style="shape=table;html=1;whiteSpace=wrap;startSize=0;container=1;collapsible=0;childLayout=tableLayout;aspect=fixed;strokeColor=#b85450;fillColor=#F8CECC;" vertex="1" parent="1">
          <mxGeometry x="-580" y="870" width="480" height="20" as="geometry" />
        </mxCell>
        <mxCell id="Dma4Zu4GrPWk_2FgmA7a-87" value="" style="shape=partialRectangle;html=1;whiteSpace=wrap;collapsible=0;dropTarget=0;pointerEvents=0;fillColor=none;top=0;left=0;bottom=0;right=0;points=[[0,0.5],[1,0.5]];portConstraint=eastwest;" vertex="1" parent="Dma4Zu4GrPWk_2FgmA7a-86">
          <mxGeometry width="480" height="20" as="geometry" />
        </mxCell>
        <mxCell id="Dma4Zu4GrPWk_2FgmA7a-88" value="0" style="shape=partialRectangle;html=1;whiteSpace=wrap;connectable=0;overflow=hidden;fillColor=none;top=0;left=0;bottom=0;right=0;" vertex="1" parent="Dma4Zu4GrPWk_2FgmA7a-87">
          <mxGeometry width="30" height="20" as="geometry" />
        </mxCell>
        <mxCell id="Dma4Zu4GrPWk_2FgmA7a-89" value="0" style="shape=partialRectangle;html=1;whiteSpace=wrap;connectable=0;overflow=hidden;fillColor=none;top=0;left=0;bottom=0;right=0;" vertex="1" parent="Dma4Zu4GrPWk_2FgmA7a-87">
          <mxGeometry x="30" width="30" height="20" as="geometry" />
        </mxCell>
        <mxCell id="Dma4Zu4GrPWk_2FgmA7a-90" value="0" style="shape=partialRectangle;html=1;whiteSpace=wrap;connectable=0;overflow=hidden;fillColor=none;top=0;left=0;bottom=0;right=0;" vertex="1" parent="Dma4Zu4GrPWk_2FgmA7a-87">
          <mxGeometry x="60" width="30" height="20" as="geometry" />
        </mxCell>
        <mxCell id="Dma4Zu4GrPWk_2FgmA7a-91" value="0" style="shape=partialRectangle;html=1;whiteSpace=wrap;connectable=0;overflow=hidden;fillColor=none;top=0;left=0;bottom=0;right=0;" vertex="1" parent="Dma4Zu4GrPWk_2FgmA7a-87">
          <mxGeometry x="90" width="30" height="20" as="geometry" />
        </mxCell>
        <mxCell id="Dma4Zu4GrPWk_2FgmA7a-92" value="0" style="shape=partialRectangle;html=1;whiteSpace=wrap;connectable=0;overflow=hidden;fillColor=none;top=0;left=0;bottom=0;right=0;" vertex="1" parent="Dma4Zu4GrPWk_2FgmA7a-87">
          <mxGeometry x="120" width="30" height="20" as="geometry" />
        </mxCell>
        <mxCell id="Dma4Zu4GrPWk_2FgmA7a-93" value="0" style="shape=partialRectangle;html=1;whiteSpace=wrap;connectable=0;overflow=hidden;fillColor=none;top=0;left=0;bottom=0;right=0;" vertex="1" parent="Dma4Zu4GrPWk_2FgmA7a-87">
          <mxGeometry x="150" width="30" height="20" as="geometry" />
        </mxCell>
        <mxCell id="Dma4Zu4GrPWk_2FgmA7a-94" value="0" style="shape=partialRectangle;html=1;whiteSpace=wrap;connectable=0;overflow=hidden;fillColor=none;top=0;left=0;bottom=0;right=0;" vertex="1" parent="Dma4Zu4GrPWk_2FgmA7a-87">
          <mxGeometry x="180" width="30" height="20" as="geometry" />
        </mxCell>
        <mxCell id="Dma4Zu4GrPWk_2FgmA7a-95" value="0" style="shape=partialRectangle;html=1;whiteSpace=wrap;connectable=0;overflow=hidden;fillColor=none;top=0;left=0;bottom=0;right=0;" vertex="1" parent="Dma4Zu4GrPWk_2FgmA7a-87">
          <mxGeometry x="210" width="30" height="20" as="geometry" />
        </mxCell>
        <mxCell id="Dma4Zu4GrPWk_2FgmA7a-96" value="0" style="shape=partialRectangle;html=1;whiteSpace=wrap;connectable=0;overflow=hidden;fillColor=none;top=0;left=0;bottom=0;right=0;" vertex="1" parent="Dma4Zu4GrPWk_2FgmA7a-87">
          <mxGeometry x="240" width="30" height="20" as="geometry" />
        </mxCell>
        <mxCell id="Dma4Zu4GrPWk_2FgmA7a-97" value="0" style="shape=partialRectangle;html=1;whiteSpace=wrap;connectable=0;overflow=hidden;fillColor=none;top=0;left=0;bottom=0;right=0;" vertex="1" parent="Dma4Zu4GrPWk_2FgmA7a-87">
          <mxGeometry x="270" width="30" height="20" as="geometry" />
        </mxCell>
        <mxCell id="Dma4Zu4GrPWk_2FgmA7a-98" value="0" style="shape=partialRectangle;html=1;whiteSpace=wrap;connectable=0;overflow=hidden;fillColor=none;top=0;left=0;bottom=0;right=0;" vertex="1" parent="Dma4Zu4GrPWk_2FgmA7a-87">
          <mxGeometry x="300" width="30" height="20" as="geometry" />
        </mxCell>
        <mxCell id="Dma4Zu4GrPWk_2FgmA7a-99" value="0" style="shape=partialRectangle;html=1;whiteSpace=wrap;connectable=0;overflow=hidden;fillColor=none;top=0;left=0;bottom=0;right=0;" vertex="1" parent="Dma4Zu4GrPWk_2FgmA7a-87">
          <mxGeometry x="330" width="30" height="20" as="geometry" />
        </mxCell>
        <mxCell id="Dma4Zu4GrPWk_2FgmA7a-100" value="1" style="shape=partialRectangle;html=1;whiteSpace=wrap;connectable=0;overflow=hidden;top=0;left=0;bottom=0;right=0;fillColor=#f8cecc;strokeColor=#b85450;" vertex="1" parent="Dma4Zu4GrPWk_2FgmA7a-87">
          <mxGeometry x="360" width="30" height="20" as="geometry" />
        </mxCell>
        <mxCell id="Dma4Zu4GrPWk_2FgmA7a-101" value="1" style="shape=partialRectangle;html=1;whiteSpace=wrap;connectable=0;overflow=hidden;top=0;left=0;bottom=0;right=0;fillColor=#f8cecc;strokeColor=#b85450;" vertex="1" parent="Dma4Zu4GrPWk_2FgmA7a-87">
          <mxGeometry x="390" width="30" height="20" as="geometry" />
        </mxCell>
        <mxCell id="Dma4Zu4GrPWk_2FgmA7a-102" value="1" style="shape=partialRectangle;html=1;whiteSpace=wrap;connectable=0;overflow=hidden;top=0;left=0;bottom=0;right=0;fillColor=#f8cecc;strokeColor=#b85450;" vertex="1" parent="Dma4Zu4GrPWk_2FgmA7a-87">
          <mxGeometry x="420" width="30" height="20" as="geometry" />
        </mxCell>
        <mxCell id="Dma4Zu4GrPWk_2FgmA7a-103" value="1" style="shape=partialRectangle;html=1;whiteSpace=wrap;connectable=0;overflow=hidden;top=0;left=0;bottom=0;right=0;fillColor=#f8cecc;strokeColor=#b85450;" vertex="1" parent="Dma4Zu4GrPWk_2FgmA7a-87">
          <mxGeometry x="450" width="30" height="20" as="geometry" />
        </mxCell>
        <mxCell id="Dma4Zu4GrPWk_2FgmA7a-104" value="" style="shape=table;html=1;whiteSpace=wrap;startSize=0;container=1;collapsible=0;childLayout=tableLayout;aspect=fixed;fillColor=#60a917;strokeColor=#2D7600;fontColor=#ffffff;" vertex="1" parent="1">
          <mxGeometry x="-100" y="870" width="480" height="20" as="geometry" />
        </mxCell>
        <mxCell id="Dma4Zu4GrPWk_2FgmA7a-105" value="" style="shape=partialRectangle;html=1;whiteSpace=wrap;collapsible=0;dropTarget=0;pointerEvents=0;fillColor=none;top=0;left=0;bottom=0;right=0;points=[[0,0.5],[1,0.5]];portConstraint=eastwest;" vertex="1" parent="Dma4Zu4GrPWk_2FgmA7a-104">
          <mxGeometry width="480" height="20" as="geometry" />
        </mxCell>
        <mxCell id="Dma4Zu4GrPWk_2FgmA7a-106" value="0" style="shape=partialRectangle;html=1;whiteSpace=wrap;connectable=0;overflow=hidden;fillColor=none;top=0;left=0;bottom=0;right=0;" vertex="1" parent="Dma4Zu4GrPWk_2FgmA7a-105">
          <mxGeometry width="30" height="20" as="geometry" />
        </mxCell>
        <mxCell id="Dma4Zu4GrPWk_2FgmA7a-107" value="1" style="shape=partialRectangle;html=1;whiteSpace=wrap;connectable=0;overflow=hidden;fillColor=none;top=0;left=0;bottom=0;right=0;" vertex="1" parent="Dma4Zu4GrPWk_2FgmA7a-105">
          <mxGeometry x="30" width="30" height="20" as="geometry" />
        </mxCell>
        <mxCell id="Dma4Zu4GrPWk_2FgmA7a-108" value="1" style="shape=partialRectangle;html=1;whiteSpace=wrap;connectable=0;overflow=hidden;fillColor=none;top=0;left=0;bottom=0;right=0;" vertex="1" parent="Dma4Zu4GrPWk_2FgmA7a-105">
          <mxGeometry x="60" width="30" height="20" as="geometry" />
        </mxCell>
        <mxCell id="Dma4Zu4GrPWk_2FgmA7a-109" value="0" style="shape=partialRectangle;html=1;whiteSpace=wrap;connectable=0;overflow=hidden;fillColor=none;top=0;left=0;bottom=0;right=0;" vertex="1" parent="Dma4Zu4GrPWk_2FgmA7a-105">
          <mxGeometry x="90" width="30" height="20" as="geometry" />
        </mxCell>
        <mxCell id="Dma4Zu4GrPWk_2FgmA7a-110" value="0" style="shape=partialRectangle;html=1;whiteSpace=wrap;connectable=0;overflow=hidden;fillColor=none;top=0;left=0;bottom=0;right=0;" vertex="1" parent="Dma4Zu4GrPWk_2FgmA7a-105">
          <mxGeometry x="120" width="30" height="20" as="geometry" />
        </mxCell>
        <mxCell id="Dma4Zu4GrPWk_2FgmA7a-111" value="0" style="shape=partialRectangle;html=1;whiteSpace=wrap;connectable=0;overflow=hidden;fillColor=none;top=0;left=0;bottom=0;right=0;" vertex="1" parent="Dma4Zu4GrPWk_2FgmA7a-105">
          <mxGeometry x="150" width="30" height="20" as="geometry" />
        </mxCell>
        <mxCell id="Dma4Zu4GrPWk_2FgmA7a-112" value="1" style="shape=partialRectangle;html=1;whiteSpace=wrap;connectable=0;overflow=hidden;fillColor=none;top=0;left=0;bottom=0;right=0;" vertex="1" parent="Dma4Zu4GrPWk_2FgmA7a-105">
          <mxGeometry x="180" width="30" height="20" as="geometry" />
        </mxCell>
        <mxCell id="Dma4Zu4GrPWk_2FgmA7a-113" value="1" style="shape=partialRectangle;html=1;whiteSpace=wrap;connectable=0;overflow=hidden;fillColor=none;top=0;left=0;bottom=0;right=0;" vertex="1" parent="Dma4Zu4GrPWk_2FgmA7a-105">
          <mxGeometry x="210" width="30" height="20" as="geometry" />
        </mxCell>
        <mxCell id="Dma4Zu4GrPWk_2FgmA7a-114" value="1" style="shape=partialRectangle;html=1;whiteSpace=wrap;connectable=0;overflow=hidden;fillColor=none;top=0;left=0;bottom=0;right=0;" vertex="1" parent="Dma4Zu4GrPWk_2FgmA7a-105">
          <mxGeometry x="240" width="30" height="20" as="geometry" />
        </mxCell>
        <mxCell id="Dma4Zu4GrPWk_2FgmA7a-115" value="1" style="shape=partialRectangle;html=1;whiteSpace=wrap;connectable=0;overflow=hidden;fillColor=none;top=0;left=0;bottom=0;right=0;" vertex="1" parent="Dma4Zu4GrPWk_2FgmA7a-105">
          <mxGeometry x="270" width="30" height="20" as="geometry" />
        </mxCell>
        <mxCell id="Dma4Zu4GrPWk_2FgmA7a-116" value="1" style="shape=partialRectangle;html=1;whiteSpace=wrap;connectable=0;overflow=hidden;fillColor=none;top=0;left=0;bottom=0;right=0;" vertex="1" parent="Dma4Zu4GrPWk_2FgmA7a-105">
          <mxGeometry x="300" width="30" height="20" as="geometry" />
        </mxCell>
        <mxCell id="Dma4Zu4GrPWk_2FgmA7a-117" value="0" style="shape=partialRectangle;html=1;whiteSpace=wrap;connectable=0;overflow=hidden;fillColor=none;top=0;left=0;bottom=0;right=0;" vertex="1" parent="Dma4Zu4GrPWk_2FgmA7a-105">
          <mxGeometry x="330" width="30" height="20" as="geometry" />
        </mxCell>
        <mxCell id="Dma4Zu4GrPWk_2FgmA7a-118" value="0" style="shape=partialRectangle;html=1;whiteSpace=wrap;connectable=0;overflow=hidden;fillColor=#60a917;top=0;left=0;bottom=0;right=0;strokeColor=#2D7600;fontColor=#ffffff;" vertex="1" parent="Dma4Zu4GrPWk_2FgmA7a-105">
          <mxGeometry x="360" width="30" height="20" as="geometry" />
        </mxCell>
        <mxCell id="Dma4Zu4GrPWk_2FgmA7a-119" value="0" style="shape=partialRectangle;html=1;whiteSpace=wrap;connectable=0;overflow=hidden;fillColor=#60a917;top=0;left=0;bottom=0;right=0;strokeColor=#2D7600;fontColor=#ffffff;" vertex="1" parent="Dma4Zu4GrPWk_2FgmA7a-105">
          <mxGeometry x="390" width="30" height="20" as="geometry" />
        </mxCell>
        <mxCell id="Dma4Zu4GrPWk_2FgmA7a-120" value="1" style="shape=partialRectangle;html=1;whiteSpace=wrap;connectable=0;overflow=hidden;fillColor=#60a917;top=0;left=0;bottom=0;right=0;strokeColor=#2D7600;fontColor=#ffffff;" vertex="1" parent="Dma4Zu4GrPWk_2FgmA7a-105">
          <mxGeometry x="420" width="30" height="20" as="geometry" />
        </mxCell>
        <mxCell id="Dma4Zu4GrPWk_2FgmA7a-121" value="1" style="shape=partialRectangle;html=1;whiteSpace=wrap;connectable=0;overflow=hidden;fillColor=#60a917;top=0;left=0;bottom=0;right=0;strokeColor=#2D7600;fontColor=#ffffff;" vertex="1" parent="Dma4Zu4GrPWk_2FgmA7a-105">
          <mxGeometry x="450" width="30" height="20" as="geometry" />
        </mxCell>
      </root>
    </mxGraphModel>
  </diagram>
</mxfile>
